<?xml version="1.0" encoding="UTF-8" standalone="no"?>
<!-- Created with Inkscape (http://www.inkscape.org/) -->

<svg
   xmlns:dc="http://purl.org/dc/elements/1.1/"
   xmlns:cc="http://creativecommons.org/ns#"
   xmlns:rdf="http://www.w3.org/1999/02/22-rdf-syntax-ns#"
   xmlns:svg="http://www.w3.org/2000/svg"
   xmlns="http://www.w3.org/2000/svg"
   xmlns:sodipodi="http://sodipodi.sourceforge.net/DTD/sodipodi-0.dtd"
   xmlns:inkscape="http://www.inkscape.org/namespaces/inkscape"
   width="100"
   height="100"
   id="svg2"
   version="1.1"
   inkscape:version="0.48.4 r9939"
   sodipodi:docname="New document 1">
  <defs
     id="defs4" />
  <sodipodi:namedview
     id="base"
     pagecolor="#ffffff"
     bordercolor="#666666"
     borderopacity="1.0"
     inkscape:pageopacity="0"
     inkscape:pageshadow="2"
     inkscape:zoom="2.1307116"
     inkscape:cx="157.77827"
     inkscape:cy="15.204"
     inkscape:document-units="px"
     inkscape:current-layer="layer1"
     showgrid="false"
     showborder="true"
     inkscape:window-width="1366"
     inkscape:window-height="716"
     inkscape:window-x="0"
     inkscape:window-y="25"
     inkscape:window-maximized="1" />
  <metadata
     id="metadata7">
    <rdf:RDF>
      <cc:Work
         rdf:about="">
        <dc:format>image/svg+xml</dc:format>
        <dc:type
           rdf:resource="http://purl.org/dc/dcmitype/StillImage" />
        <dc:title></dc:title>
      </cc:Work>
    </rdf:RDF>
  </metadata>
  <g
     inkscape:groupmode="layer"
     id="layer2"
     inkscape:label="Outline" />
  <g
     inkscape:label="Layer 1"
     inkscape:groupmode="layer"
     id="layer1"
     transform="translate(0,-952.36218)"
     style="display:inline">
    <path
       style="opacity:0.95999995;fill:#000000;fill-opacity:1;stroke:#ffffff;stroke-width:1.98097467;stroke-miterlimit:4;stroke-opacity:1;stroke-dasharray:none"
       d="m 50.000003,953.35257 c -6.539352,0 -11.842085,5.07137 -11.842085,11.32722 0,0.0645 -0.0011,0.12882 0,0.19308 -5.36e-4,0.0431 0,0.0855 0,0.1287 0.0065,0.2246 0.01207,0.45478 0.03218,0.67578 0.02153,0.32795 0.07676,0.64593 0.128719,0.96539 0.670004,4.12016 3.787728,7.46591 7.948355,8.75284 0.317678,0.0983 0.63649,0.21615 0.965387,0.28962 -0.251786,0.96141 -0.494874,2.08366 -0.707951,3.28232 -0.0075,0.0415 0.0075,0.087 0,0.12872 -0.04049,0.23087 -0.08979,0.437 -0.128718,0.67577 -0.06587,0.39275 -0.09972,0.77677 -0.160898,1.19064 -0.09776,0.67449 -0.204237,1.36609 -0.289616,2.09167 -2.825848,-0.51899 -6.855297,-0.83666 -11.39157,-0.83666 -8.530698,0 -15.446197,1.15257 -15.446197,2.57435 0,1.42179 6.915499,2.57438 15.446197,2.57438 4.338301,0 8.231872,-0.3245 11.037595,-0.80449 -0.06567,0.80651 -0.110207,1.63095 -0.160898,2.47783 -0.03321,0.55481 -0.07008,1.10294 -0.09654,1.67334 -0.03869,0.81132 -0.07224,1.6382 -0.09654,2.47782 -0.0063,0.22861 -0.02689,0.44525 -0.03218,0.67577 -0.02566,1.07338 -0.03218,2.17074 -0.03218,3.28232 0,0.41436 -0.0036,0.81324 0,1.22282 -2.771345,-0.44017 -6.488364,-0.70795 -10.619261,-0.70795 -8.530698,0 -15.446197,1.15257 -15.446197,2.57435 0,1.4218 6.915499,2.5744 15.446197,2.5744 4.160188,0 7.906432,-0.2944 10.68362,-0.7401 0.01524,0.4399 0.0448,0.8553 0.06436,1.2871 0.04421,0.976 0.09609,1.9337 0.160898,2.864 0.0022,0.033 -0.0023,0.064 0,0.096 0.06502,0.9219 0.141953,1.8335 0.225258,2.703 0.07678,0.8015 0.166712,1.5979 0.257436,2.3492 0.109072,0.9071 0.225806,1.7812 0.353976,2.6065 0.0016,0.01 -0.0016,0.022 0,0.033 -2.833386,-0.559 -7.011303,-0.901 -11.745546,-0.901 -8.530698,0 -15.446197,1.1525 -15.446197,2.5744 0,1.4217 6.915499,2.5743 15.446197,2.5743 5.060764,0 9.507516,-0.4351 12.324778,-1.062 0.04723,0.2155 0.0799,0.4056 0.128718,0.6115 -4.076464,1.9965 -7.094032,7.9514 -7.369123,15.1244 -0.01353,0.3528 -0.03218,0.7034 -0.03218,1.0619 0,0.044 -1.99e-4,0.085 0,0.1288 -7.79e-4,0.085 0,0.1714 0,0.2574 0.0062,0.4519 0.03674,0.909 0.06436,1.3515 0.422728,8.7499 4.870098,15.6393 10.329644,15.6393 5.459545,0 9.906915,-6.8894 10.329644,-15.6393 0.03287,-0.5266 0.06188,-1.0692 0.06436,-1.6089 -0.0036,-0.3965 -0.01223,-0.8013 -0.03218,-1.1907 -0.276201,-7.1951 -3.306128,-13.179 -7.401302,-15.1566 0.0431,-0.1842 0.08679,-0.3875 0.128718,-0.5793 2.815382,0.6306 7.278838,1.062 12.356957,1.062 8.530699,0 15.446197,-1.1526 15.446197,-2.5743 0,-1.4219 -6.915498,-2.5744 -15.446197,-2.5744 -4.734244,0 -8.91216,0.342 -11.745545,0.901 0.52351,-3.3601 0.906919,-7.4515 1.061926,-11.9386 2.77701,0.4459 6.523372,0.7401 10.683619,0.7401 8.530699,0 15.446197,-1.1526 15.446197,-2.5744 0,-1.42178 -6.915498,-2.57436 -15.446197,-2.57436 -4.145462,0 -7.877043,0.26498 -10.651439,0.70795 0.0035,-0.41344 0.03218,-0.8045 0.03218,-1.22282 0,-1.34752 -0.027,-2.66773 -0.06436,-3.95809 -0.02431,-0.83962 -0.05785,-1.6665 -0.09654,-2.47782 -0.01271,-0.27398 -0.0179,-0.53403 -0.03218,-0.80449 -0.0155,-0.28753 -0.04715,-0.58538 -0.06436,-0.86884 -0.05069,-0.84687 -0.09523,-1.67133 -0.160897,-2.47784 2.805722,0.48 6.699294,0.80449 11.037595,0.80449 8.530698,0 15.446196,-1.15257 15.446196,-2.57437 0,-1.42178 -6.915498,-2.57436 -15.446196,-2.57436 -4.536274,0 -8.565723,0.31767 -11.391571,0.83667 -0.08538,-0.72559 -0.191853,-1.41719 -0.289616,-2.09167 -0.09619,-0.65067 -0.182205,-1.26846 -0.289616,-1.86641 -0.0074,-0.0425 0.0075,-0.0865 0,-0.12873 -0.213076,-1.19866 -0.456166,-2.3209 -0.707951,-3.28232 0.328898,-0.0735 0.64771,-0.19135 0.965388,-0.28961 4.160626,-1.28694 7.27835,-4.63269 7.948355,-8.75285 0.05195,-0.31946 0.10718,-0.63744 0.128719,-0.96539 0.02393,-0.26302 0.02748,-0.53642 0.03218,-0.80448 0.0011,-0.0643 0,-0.12856 0,-0.19308 0,-6.25585 -5.302731,-11.32721 -11.842083,-11.32721 z"
       id="path3828"
       inkscape:connector-curvature="0" />
  </g>
</svg>
