<?xml version="1.0" encoding="UTF-8" standalone="no"?>
<!-- Created with Inkscape (http://www.inkscape.org/) -->

<svg
   xmlns:dc="http://purl.org/dc/elements/1.1/"
   xmlns:cc="http://creativecommons.org/ns#"
   xmlns:rdf="http://www.w3.org/1999/02/22-rdf-syntax-ns#"
   xmlns:svg="http://www.w3.org/2000/svg"
   xmlns="http://www.w3.org/2000/svg"
   xmlns:sodipodi="http://sodipodi.sourceforge.net/DTD/sodipodi-0.dtd"
   xmlns:inkscape="http://www.inkscape.org/namespaces/inkscape"
   width="100"
   height="100"
   id="svg2"
   version="1.1"
   inkscape:version="0.48.4 r9939"
   sodipodi:docname="Ant_r.svg"
   inkscape:export-filename="/home/petra/Documents/programs/LangtonsAnt/Ant_r.png"
   inkscape:export-xdpi="450"
   inkscape:export-ydpi="450">
  <defs
     id="defs4" />
  <sodipodi:namedview
     id="base"
     pagecolor="#000000"
     bordercolor="#666666"
     borderopacity="1.0"
     inkscape:pageopacity="1"
     inkscape:pageshadow="2"
     inkscape:zoom="2.1307116"
     inkscape:cx="157.77827"
     inkscape:cy="15.204"
     inkscape:document-units="px"
     inkscape:current-layer="layer1"
     showgrid="false"
     showborder="true"
     inkscape:window-width="1366"
     inkscape:window-height="716"
     inkscape:window-x="0"
     inkscape:window-y="25"
     inkscape:window-maximized="1" />
  <metadata
     id="metadata7">
    <rdf:RDF>
      <cc:Work
         rdf:about="">
        <dc:format>image/svg+xml</dc:format>
        <dc:type
           rdf:resource="http://purl.org/dc/dcmitype/StillImage" />
        <dc:title></dc:title>
      </cc:Work>
    </rdf:RDF>
  </metadata>
  <g
     inkscape:groupmode="layer"
     id="layer2"
     inkscape:label="Outline" />
  <g
     inkscape:label="Layer 1"
     inkscape:groupmode="layer"
     id="layer1"
     transform="translate(0,-952.36218)"
     style="display:inline">
    <path
       style="opacity:0.95999995000000005;fill:#ffffff;fill-opacity:1;stroke:none"
       d="m 50.000003,952.36198 c -6.671499,0 -12.08139,5.17385 -12.08139,11.55612 0,0.0658 -0.0011,0.13142 0,0.19698 -5.47e-4,0.044 0,0.0872 0,0.1313 0.0066,0.22914 0.01231,0.46397 0.03283,0.68944 0.02197,0.33458 0.07831,0.65898 0.13132,0.9849 0.683543,4.20342 3.86427,7.61678 8.108975,8.92971 0.324097,0.10029 0.649352,0.22052 0.984895,0.29548 -0.256874,0.98084 -0.504874,2.12576 -0.722257,3.34865 -0.0077,0.0423 0.0077,0.0888 0,0.13132 -0.04131,0.23553 -0.0916,0.44583 -0.131319,0.68942 -0.0672,0.40069 -0.101735,0.79247 -0.164149,1.2147 -0.09974,0.68812 -0.208365,1.3937 -0.295469,2.13394 -2.882953,-0.52948 -6.993829,-0.85357 -11.621771,-0.85357 -8.703086,0 -15.758333,1.17587 -15.758333,2.62638 0,1.45052 7.055247,2.6264 15.758333,2.6264 4.42597,0 8.398222,-0.33106 11.260643,-0.82075 -0.067,0.82281 -0.112434,1.66391 -0.16415,2.52791 -0.03388,0.56602 -0.0715,1.12522 -0.09849,1.70715 -0.03947,0.82772 -0.0737,1.6713 -0.09849,2.52789 -0.0064,0.23323 -0.02743,0.45425 -0.03283,0.68943 -0.02618,1.09507 -0.03283,2.2146 -0.03283,3.34865 0,0.42273 -0.0037,0.82967 0,1.24753 -2.827348,-0.44907 -6.619481,-0.72226 -10.833855,-0.72226 -8.703086,0 -15.758333,1.17586 -15.758333,2.6264 0,1.4505 7.055247,2.6264 15.758333,2.6264 4.244257,0 8.066205,-0.3003 10.899515,-0.755 0.01555,0.4488 0.0457,0.8725 0.06566,1.3131 0.0451,0.9957 0.09803,1.9727 0.16415,2.9218 0.0022,0.034 -0.0023,0.065 0,0.098 0.06633,0.9405 0.144821,1.8705 0.22981,2.7576 0.07833,0.8177 0.170081,1.6302 0.262638,2.3967 0.111276,0.9254 0.230369,1.8172 0.361129,2.6592 0.0016,0.01 -0.0016,0.022 0,0.034 -2.890643,-0.5703 -7.152987,-0.9192 -11.9829,-0.9192 -8.703086,0 -15.758333,1.1758 -15.758333,2.6264 0,1.4505 7.055247,2.6264 15.758333,2.6264 5.163032,0 9.699644,-0.4439 12.573837,-1.0835 0.04819,0.2199 0.08152,0.4138 0.131319,0.6239 -4.158841,2.0368 -7.237388,8.112 -7.518038,15.43 -0.0138,0.3599 -0.03283,0.7176 -0.03283,1.0833 0,0.045 -2.03e-4,0.087 0,0.1314 -7.95e-4,0.087 0,0.1749 0,0.2627 0.0063,0.461 0.03748,0.9273 0.06566,1.3788 0.43127,8.9267 4.968512,15.9553 10.538385,15.9553 5.569871,0 10.107113,-7.0286 10.538385,-15.9553 0.03353,-0.5373 0.06313,-1.0908 0.06566,-1.6415 -0.0037,-0.4045 -0.01248,-0.8174 -0.03283,-1.2147 -0.281782,-7.3405 -3.372938,-13.4453 -7.550867,-15.4629 0.04397,-0.1879 0.08854,-0.3953 0.131319,-0.591 2.872275,0.6433 7.425929,1.0835 12.606666,1.0835 8.703087,0 15.758333,-1.1759 15.758333,-2.6264 0,-1.4506 -7.055246,-2.6264 -15.758333,-2.6264 -4.829913,0 -9.092257,0.3489 -11.982899,0.9192 0.534089,-3.428 0.925246,-7.6021 1.083386,-12.1798 2.833128,0.4549 6.655196,0.755 10.899513,0.755 8.703087,0 15.758333,-1.1759 15.758333,-2.6264 0,-1.45053 -7.055246,-2.6264 -15.758333,-2.6264 -4.229233,0 -8.036222,0.27033 -10.866683,0.72225 0.0036,-0.42179 0.03283,-0.82076 0.03283,-1.24753 0,-1.37475 -0.02755,-2.72164 -0.06566,-4.03807 -0.0248,-0.85659 -0.05902,-1.70018 -0.09849,-2.5279 -0.01297,-0.27951 -0.01826,-0.54482 -0.03283,-0.82074 -0.01581,-0.29334 -0.0481,-0.59721 -0.06566,-0.8864 -0.05171,-0.86398 -0.09715,-1.7051 -0.164148,-2.52791 2.86242,0.4897 6.834673,0.82074 11.260642,0.82074 8.703086,0 15.758332,-1.17586 15.758332,-2.62639 0,-1.45051 -7.055246,-2.62638 -15.758332,-2.62638 -4.627943,0 -8.738819,0.32409 -11.621772,0.85358 -0.08711,-0.74026 -0.195729,-1.44583 -0.295468,-2.13394 -0.09813,-0.66382 -0.185887,-1.2941 -0.295469,-1.90413 -0.0075,-0.0434 0.0077,-0.0883 0,-0.13133 -0.217381,-1.22288 -0.465384,-2.3678 -0.722257,-3.34865 0.335544,-0.075 0.660799,-0.19522 0.984897,-0.29546 4.244703,-1.31295 7.42543,-4.72631 8.108975,-8.92973 0.053,-0.32591 0.109346,-0.65032 0.13132,-0.9849 0.02441,-0.26833 0.02804,-0.54726 0.03283,-0.82073 0.0011,-0.0656 0,-0.13116 0,-0.19699 0,-6.38226 -5.409888,-11.55611 -12.081387,-11.55611 z"
       id="path3828"
       inkscape:connector-curvature="0" />
  </g>
</svg>
